<svg id="レイヤー_1" data-name="レイヤー 1" xmlns="http://www.w3.org/2000/svg" viewBox="0 0 190.72 128.25"><defs><style>.cls-1{fill:#006552;}.cls-2{fill:#ac4a45;}.cls-3{fill:#4c4c4c;}</style></defs><title>ashinote-logo-enjp-vertical</title><path class="cls-1" d="M101.69,7.74a29.17,29.17,0,0,0-14.9,6.56A24.48,24.48,0,0,0,78.92,32c-0.12,5,.29,11.38-0.46,13.19s-1.31,2.61-4.23,3.28A6.94,6.94,0,0,1,68,46.84c-1.4-1.3-3.16-5.17-3.9-8.87a33.3,33.3,0,0,1-.49-9.72,30.61,30.61,0,0,1,4-12.38,32.66,32.66,0,0,1,10.59-11A33.2,33.2,0,0,1,89.47.5,28.13,28.13,0,0,1,98.76.28c9.07,1,14.18,7.52,14.24,8.1C112.63,8.59,107.77,6.89,101.69,7.74Z"/><path class="cls-2" d="M88.36,53.75a29.17,29.17,0,0,0,14.9-6.56,24.32,24.32,0,0,0,7.87-17.71c0.09-5-.17-9,0.2-11.9A5.28,5.28,0,0,1,115.82,13a6.26,6.26,0,0,1,6.27,1.64c2,2.33,3.17,4.9,3.9,8.87a30.14,30.14,0,0,1,.49,9.72,35.85,35.85,0,0,1-4,12.38,32.66,32.66,0,0,1-10.59,11A33.2,33.2,0,0,1,100.58,61a28.13,28.13,0,0,1-9.29.23c-9.07-1-14.18-7.52-14.24-8.1C77.42,52.9,82.29,54.61,88.36,53.75Z"/><path class="cls-3" d="M40.55,121.44a4,4,0,0,0,1.18,1.3,5,5,0,0,0,1.66.75,7.79,7.79,0,0,0,2,.24,7.28,7.28,0,0,0,1.52-.17A5.14,5.14,0,0,0,48.3,123a3.26,3.26,0,0,0,1.08-1,2.53,2.53,0,0,0,.43-1.52q0-1.54-2-2.31a41,41,0,0,0-5.71-1.54q-1.49-.34-2.91-0.79a9.91,9.91,0,0,1-2.53-1.2,5.85,5.85,0,0,1-1.78-1.88,5.32,5.32,0,0,1-.67-2.77,7.49,7.49,0,0,1,.94-3.95,6.93,6.93,0,0,1,2.48-2.43,10.89,10.89,0,0,1,3.47-1.25,21.36,21.36,0,0,1,3.95-.36,19.78,19.78,0,0,1,3.92.38,10.4,10.4,0,0,1,3.39,1.3,7.8,7.8,0,0,1,2.48,2.43A8.18,8.18,0,0,1,56,110h-6.5A3,3,0,0,0,48,107.33a6.84,6.84,0,0,0-3.18-.7,11.77,11.77,0,0,0-1.25.07,4.17,4.17,0,0,0-1.23.31,2.53,2.53,0,0,0-.94.7,1.84,1.84,0,0,0-.39,1.23,1.87,1.87,0,0,0,.67,1.49,5.2,5.2,0,0,0,1.76.94,22,22,0,0,0,2.48.65q1.4,0.29,2.84.63a29.33,29.33,0,0,1,2.91.82,9.62,9.62,0,0,1,2.53,1.28,6.18,6.18,0,0,1,1.78,2,5.79,5.79,0,0,1,.67,2.91,7.56,7.56,0,0,1-3.56,6.79,10.52,10.52,0,0,1-3.63,1.42,21.21,21.21,0,0,1-4.16.41,20.66,20.66,0,0,1-4.24-.43,11.17,11.17,0,0,1-3.68-1.44,8.24,8.24,0,0,1-2.65-2.67,8.36,8.36,0,0,1-1.13-4.16h6.5A3.75,3.75,0,0,0,40.55,121.44Z"/><path class="cls-3" d="M66.08,93.25V106.2h0.14A7.92,7.92,0,0,1,69.54,103a9,9,0,0,1,3.95-1,11.62,11.62,0,0,1,4.5.75,6.68,6.68,0,0,1,2.77,2.07,8,8,0,0,1,1.42,3.23,20.08,20.08,0,0,1,.41,4.21v15.31H75.75V113.57a8.72,8.72,0,0,0-1-4.6,3.73,3.73,0,0,0-3.42-1.52,4.74,4.74,0,0,0-4,1.66q-1.25,1.66-1.25,5.46v13H59.24V93.25h6.84Z"/><circle class="cls-3" cx="89.47" cy="96.67" r="3.42"/><path class="cls-3" d="M92.89,102.73v24.89H86.05V102.73h6.84Z"/><path class="cls-3" d="M103.34,102.73v3.47h0.14a7.85,7.85,0,0,1,3.37-3.15,9.76,9.76,0,0,1,4.24-1,11.62,11.62,0,0,1,4.5.75,6.68,6.68,0,0,1,2.77,2.07,8,8,0,0,1,1.42,3.23,20.08,20.08,0,0,1,.41,4.21v15.31h-6.84V113.57a8.72,8.72,0,0,0-1-4.6,3.73,3.73,0,0,0-3.42-1.52,4.74,4.74,0,0,0-4,1.66q-1.25,1.66-1.25,5.46v13H96.84V102.73h6.5Z"/><path class="cls-3" d="M123.61,109.79a11.38,11.38,0,0,1,6.64-6.79,14.22,14.22,0,0,1,5.3-.94,14.41,14.41,0,0,1,5.32.94,11.33,11.33,0,0,1,6.67,6.79,15.3,15.3,0,0,1,.91,5.42,15.1,15.1,0,0,1-.91,5.39,11.69,11.69,0,0,1-2.6,4.12,11.33,11.33,0,0,1-4.07,2.62,14.74,14.74,0,0,1-5.32.91,14.54,14.54,0,0,1-5.3-.91,11.36,11.36,0,0,1-4-2.62,11.67,11.67,0,0,1-2.6-4.12,15.08,15.08,0,0,1-.91-5.39A15.28,15.28,0,0,1,123.61,109.79Zm6.21,8.33a7.74,7.74,0,0,0,1,2.55,5.25,5.25,0,0,0,1.85,1.81,5.66,5.66,0,0,0,2.89.67,5.79,5.79,0,0,0,2.91-.67,5.19,5.19,0,0,0,1.88-1.81,7.76,7.76,0,0,0,1-2.55,14.56,14.56,0,0,0,.29-2.91,14.92,14.92,0,0,0-.29-2.94,7.51,7.51,0,0,0-1-2.55,5.47,5.47,0,0,0-1.88-1.8,5.63,5.63,0,0,0-2.91-.7,5.26,5.26,0,0,0-4.74,2.5,7.49,7.49,0,0,0-1,2.55,15,15,0,0,0-.29,2.94A14.62,14.62,0,0,0,129.82,118.11Z"/><path class="cls-3" d="M164.78,101.92v4.15h-5v13.55a2.31,2.31,0,0,0,2.89,2.89q0.58,0,1.11,0a9.29,9.29,0,0,0,1-.14v5.3a16.3,16.3,0,0,1-1.93.19q-1.06,0-2.07,0a19.94,19.94,0,0,1-3-.22,7.09,7.09,0,0,1-2.5-.84,4.45,4.45,0,0,1-1.71-1.78,6.35,6.35,0,0,1-.63-3V106.08h-4.14v-4.15h4.14V94.46h6.84v7.46h5Z"/><path class="cls-3" d="M174.4,121.65a7,7,0,0,0,8,.46,4.29,4.29,0,0,0,1.83-2.19h6a11.42,11.42,0,0,1-4.43,6.4,13,13,0,0,1-7.22,1.93,14.22,14.22,0,0,1-5.3-.94,11,11,0,0,1-4-2.67,12,12,0,0,1-2.53-4.14,15.15,15.15,0,0,1-.89-5.3,14.52,14.52,0,0,1,.91-5.2,12,12,0,0,1,6.62-6.93,12.88,12.88,0,0,1,5.18-1,11.84,11.84,0,0,1,5.54,1.23,11.06,11.06,0,0,1,3.88,3.3,13.56,13.56,0,0,1,2.19,4.72,17.58,17.58,0,0,1,.48,5.54h-18Q172.86,120.16,174.4,121.65Zm7.73-13.09a4.8,4.8,0,0,0-3.73-1.35,6,6,0,0,0-2.72.55,5.2,5.2,0,0,0-1.73,1.37,5,5,0,0,0-.91,1.73,7.79,7.79,0,0,0-.31,1.64h11.12A7.9,7.9,0,0,0,182.13,108.56Z"/><polygon class="cls-3" points="20.75 92.31 13 92.31 0 127.31 7.61 127.31 10.3 118.31 10.3 118.31 12.29 113.31 12.28 113.31 16.75 101.31 16.85 101.31 21.18 113.31 13.94 113.31 11.96 118.31 23.16 118.31 25.75 127.31 33.6 127.31 20.75 92.31"/><path class="cls-3" d="M60.74,76.94l1.16,0.78a35,35,0,0,1-3.39,4.39l-1.3-.83a18.5,18.5,0,0,0,2.42-2.92H51.21V76.94h9.53Zm-4,2.3c0,4-.29,6-3.39,8.06l-1.21-1.09c2.9-1.68,3.05-3.21,3.05-7h1.55Z"/><path class="cls-3" d="M76.59,81l-0.7,1.26a23.28,23.28,0,0,0-3.37-1.5l0.71-1.27A24.72,24.72,0,0,1,76.59,81Zm5.36-1.59,1,1.13a17.31,17.31,0,0,1-9,6.68l-0.79-1.44A15.31,15.31,0,0,0,81.94,79.41Zm-4-1.26-0.73,1.24A22,22,0,0,0,74,77.81l0.71-1.24A25.72,25.72,0,0,1,77.95,78.15Z"/><path class="cls-3" d="M101,77.21a13.85,13.85,0,0,1-7.62,10.08L92.3,86a11.75,11.75,0,0,0,7.16-9.13Z"/><path class="cls-3" d="M112.85,86.16L111.8,85a17.6,17.6,0,0,0,5.49-5H112V78.62h5.81V76h1.57v2.6h3V80h-3v5.19c0,1.39-.53,2.08-1.91,2.08a12.77,12.77,0,0,1-1.83-.12v-1.5a10.1,10.1,0,0,0,1.47.1,0.61,0.61,0,0,0,.7-0.73V81.75A21.8,21.8,0,0,1,112.85,86.16Z"/><path class="cls-3" d="M141.87,82.79l-1,1.27a31.54,31.54,0,0,0-4.78-2.82V87.3h-1.57V76h1.57v3.56A43.2,43.2,0,0,1,141.87,82.79Z"/></svg>