<svg id="レイヤー_1" data-name="レイヤー 1" xmlns="http://www.w3.org/2000/svg" viewBox="0 0 308.84 59.79"><defs><style>.cls-1{fill:#4c4c4c;}.cls-2{fill:#006552;}.cls-3{fill:#ac4a45;}</style></defs><title>ashinote-logo-horiontal</title><path d="M123.17,44.73a4.94,4.94,0,0,0,1.46,1.61,6.24,6.24,0,0,0,2.05.92,9.63,9.63,0,0,0,2.41.3,9,9,0,0,0,1.88-.21,6.36,6.36,0,0,0,1.79-.66,4,4,0,0,0,1.34-1.19,3.13,3.13,0,0,0,.54-1.87q0-1.9-2.53-2.86a50.72,50.72,0,0,0-7.05-1.9q-1.85-.42-3.6-1a12.25,12.25,0,0,1-3.12-1.49,7.23,7.23,0,0,1-2.2-2.32,6.58,6.58,0,0,1-.83-3.42,9.27,9.27,0,0,1,1.16-4.88,8.57,8.57,0,0,1,3.07-3,13.46,13.46,0,0,1,4.29-1.55,26.41,26.41,0,0,1,4.88-.45,24.45,24.45,0,0,1,4.85.48,12.86,12.86,0,0,1,4.2,1.61,9.64,9.64,0,0,1,3.07,3,10.11,10.11,0,0,1,1.46,4.73h-8a3.7,3.7,0,0,0-1.84-3.3,8.45,8.45,0,0,0-3.93-.86,14.55,14.55,0,0,0-1.55.09,5.15,5.15,0,0,0-1.52.39,3.13,3.13,0,0,0-1.16.86,2.28,2.28,0,0,0-.48,1.52,2.32,2.32,0,0,0,.83,1.85,6.43,6.43,0,0,0,2.17,1.16,27.15,27.15,0,0,0,3.07.8q1.73,0.36,3.51.77a36.26,36.26,0,0,1,3.6,1A11.9,11.9,0,0,1,140,36.46a7.65,7.65,0,0,1,2.2,2.44,7.16,7.16,0,0,1,.83,3.6,9.35,9.35,0,0,1-4.41,8.39,13,13,0,0,1-4.49,1.76,26.23,26.23,0,0,1-5.15.51,25.55,25.55,0,0,1-5.24-.54,13.81,13.81,0,0,1-4.55-1.79,10.19,10.19,0,0,1-3.27-3.3,10.34,10.34,0,0,1-1.4-5.15h8A4.63,4.63,0,0,0,123.17,44.73Z"/><path d="M154.73,9.89v16h0.18A9.79,9.79,0,0,1,159,22a11.1,11.1,0,0,1,4.88-1.22,14.37,14.37,0,0,1,5.56.92,8.26,8.26,0,0,1,3.42,2.56,9.92,9.92,0,0,1,1.76,4,24.82,24.82,0,0,1,.51,5.21V52.38H166.7V35a10.78,10.78,0,0,0-1.19-5.68q-1.19-1.87-4.23-1.87-3.45,0-5,2.05t-1.55,6.75V52.38h-8.45V9.89h8.45Z"/><circle cx="183.66" cy="14.11" r="4.23"/><path d="M187.89,21.61V52.38h-8.45V21.61h8.45Z"/><path d="M200.81,21.61V25.9H201a9.7,9.7,0,0,1,4.17-3.9,12.06,12.06,0,0,1,5.24-1.22,14.37,14.37,0,0,1,5.56.92,8.26,8.26,0,0,1,3.42,2.56,9.92,9.92,0,0,1,1.76,4,24.82,24.82,0,0,1,.51,5.21V52.38h-8.45V35A10.78,10.78,0,0,0,212,29.32q-1.19-1.87-4.23-1.87-3.45,0-5,2.05t-1.55,6.75V52.38h-8.45V21.61h8Z"/><path d="M225.86,30.33a14.07,14.07,0,0,1,8.21-8.39,17.57,17.57,0,0,1,6.55-1.16,17.82,17.82,0,0,1,6.58,1.16,14,14,0,0,1,8.24,8.39,18.91,18.91,0,0,1,1.13,6.7,18.67,18.67,0,0,1-1.13,6.67,14.45,14.45,0,0,1-3.21,5.09,14,14,0,0,1-5,3.24,18.23,18.23,0,0,1-6.58,1.13A18,18,0,0,1,234.08,52a14.05,14.05,0,0,1-5-3.24,14.43,14.43,0,0,1-3.21-5.09A18.65,18.65,0,0,1,224.73,37,18.89,18.89,0,0,1,225.86,30.33Zm7.68,10.3a9.57,9.57,0,0,0,1.22,3.15A6.49,6.49,0,0,0,237.05,46a7,7,0,0,0,3.57.83,7.16,7.16,0,0,0,3.6-.83,6.42,6.42,0,0,0,2.32-2.23,9.59,9.59,0,0,0,1.22-3.15,18,18,0,0,0,.36-3.6,18.45,18.45,0,0,0-.36-3.63,9.29,9.29,0,0,0-1.22-3.16A6.76,6.76,0,0,0,244.22,28a7,7,0,0,0-3.6-.86,6.5,6.5,0,0,0-5.86,3.09,9.27,9.27,0,0,0-1.22,3.16,18.52,18.52,0,0,0-.36,3.63A18.08,18.08,0,0,0,233.54,40.63Z"/><path d="M276.76,20.61v5.14h-6.19V42.5a4.14,4.14,0,0,0,.71,2.86,4.14,4.14,0,0,0,2.86.71q0.71,0,1.37-.06a11.49,11.49,0,0,0,1.25-.18v6.55a20.15,20.15,0,0,1-2.38.24q-1.31.06-2.56,0.06a24.65,24.65,0,0,1-3.72-.27,8.76,8.76,0,0,1-3.09-1,5.51,5.51,0,0,1-2.11-2.2,7.85,7.85,0,0,1-.77-3.75V25.75H257V20.61h5.12V11.39h8.45v9.23h6.19Z"/><path d="M288.67,45a8.66,8.66,0,0,0,9.88.57,5.31,5.31,0,0,0,2.26-2.71h7.44q-1.79,5.54-5.48,7.92a16.12,16.12,0,0,1-8.93,2.38A17.58,17.58,0,0,1,287.3,52a13.6,13.6,0,0,1-4.94-3.3,14.85,14.85,0,0,1-3.12-5.12,18.73,18.73,0,0,1-1.1-6.55,18,18,0,0,1,1.13-6.43A14.88,14.88,0,0,1,287.45,22a15.92,15.92,0,0,1,6.4-1.25,14.64,14.64,0,0,1,6.84,1.52,13.67,13.67,0,0,1,4.79,4.08,16.76,16.76,0,0,1,2.71,5.83,21.74,21.74,0,0,1,.6,6.84h-22.2Q286.76,43.16,288.67,45Zm9.55-16.19a5.94,5.94,0,0,0-4.61-1.67,7.36,7.36,0,0,0-3.36.68,6.43,6.43,0,0,0-2.14,1.7A6.22,6.22,0,0,0,287,31.67a9.63,9.63,0,0,0-.39,2h13.75A9.77,9.77,0,0,0,298.22,28.81Z"/><polygon points="98.44 9.65 88.86 9.65 72.79 52.65 82.19 52.65 85.53 42.65 85.53 42.65 87.99 35.65 87.97 35.65 93.5 20.65 93.62 20.65 98.98 35.65 90.03 35.65 87.58 42.65 101.42 42.65 104.63 52.65 114.33 52.65 98.44 9.65"/><path class="cls-1" d="M123.17,44.82a4.94,4.94,0,0,0,1.46,1.61,6.24,6.24,0,0,0,2.05.92,9.63,9.63,0,0,0,2.41.3,9,9,0,0,0,1.88-.21,6.36,6.36,0,0,0,1.79-.66,4,4,0,0,0,1.34-1.19,3.13,3.13,0,0,0,.54-1.87q0-1.9-2.53-2.86A50.72,50.72,0,0,0,125,39q-1.85-.42-3.6-1a12.25,12.25,0,0,1-3.12-1.49,7.23,7.23,0,0,1-2.2-2.32,6.58,6.58,0,0,1-.83-3.42,9.27,9.27,0,0,1,1.16-4.88,8.57,8.57,0,0,1,3.07-3,13.46,13.46,0,0,1,4.29-1.55,26.41,26.41,0,0,1,4.88-.45,24.45,24.45,0,0,1,4.85.48,12.86,12.86,0,0,1,4.2,1.61,9.64,9.64,0,0,1,3.07,3,10.11,10.11,0,0,1,1.46,4.73h-8a3.7,3.7,0,0,0-1.84-3.3,8.45,8.45,0,0,0-3.93-.86,14.55,14.55,0,0,0-1.55.09,5.15,5.15,0,0,0-1.52.39,3.13,3.13,0,0,0-1.16.86,2.28,2.28,0,0,0-.48,1.52,2.32,2.32,0,0,0,.83,1.85,6.43,6.43,0,0,0,2.17,1.16,27.15,27.15,0,0,0,3.07.8q1.73,0.36,3.51.77a36.26,36.26,0,0,1,3.6,1A11.9,11.9,0,0,1,140,36.55a7.65,7.65,0,0,1,2.2,2.44,7.16,7.16,0,0,1,.83,3.6A9.35,9.35,0,0,1,138.67,51a13,13,0,0,1-4.49,1.76,26.23,26.23,0,0,1-5.15.51,25.55,25.55,0,0,1-5.24-.54,13.81,13.81,0,0,1-4.55-1.79,10.19,10.19,0,0,1-3.27-3.3,10.34,10.34,0,0,1-1.4-5.15h8A4.63,4.63,0,0,0,123.17,44.82Z"/><path class="cls-1" d="M154.73,10V26h0.18a9.79,9.79,0,0,1,4.11-3.9,11.1,11.1,0,0,1,4.88-1.22,14.37,14.37,0,0,1,5.56.92,8.26,8.26,0,0,1,3.42,2.56,9.92,9.92,0,0,1,1.76,4,24.82,24.82,0,0,1,.51,5.21V52.47H166.7V35.09a10.78,10.78,0,0,0-1.19-5.68q-1.19-1.87-4.23-1.87-3.45,0-5,2.05t-1.55,6.75V52.47h-8.45V10h8.45Z"/><circle class="cls-1" cx="183.66" cy="14.2" r="4.23"/><path class="cls-1" d="M187.89,21.7V52.47h-8.45V21.7h8.45Z"/><path class="cls-1" d="M200.81,21.7V26H201a9.7,9.7,0,0,1,4.17-3.9,12.06,12.06,0,0,1,5.24-1.22,14.37,14.37,0,0,1,5.56.92,8.26,8.26,0,0,1,3.42,2.56,9.92,9.92,0,0,1,1.76,4,24.82,24.82,0,0,1,.51,5.21V52.47h-8.45V35.09A10.78,10.78,0,0,0,212,29.41q-1.19-1.87-4.23-1.87-3.45,0-5,2.05t-1.55,6.75V52.47h-8.45V21.7h8Z"/><path class="cls-1" d="M225.86,30.42A14.07,14.07,0,0,1,234.08,22a17.57,17.57,0,0,1,6.55-1.16A17.82,17.82,0,0,1,247.2,22a14,14,0,0,1,8.24,8.39,18.91,18.91,0,0,1,1.13,6.7,18.67,18.67,0,0,1-1.13,6.67,14.45,14.45,0,0,1-3.21,5.09,14,14,0,0,1-5,3.24,18.23,18.23,0,0,1-6.58,1.13,18,18,0,0,1-6.55-1.13,14.05,14.05,0,0,1-5-3.24,14.43,14.43,0,0,1-3.21-5.09,18.65,18.65,0,0,1-1.13-6.67A18.89,18.89,0,0,1,225.86,30.42Zm7.68,10.3a9.57,9.57,0,0,0,1.22,3.15,6.49,6.49,0,0,0,2.29,2.23,7,7,0,0,0,3.57.83,7.16,7.16,0,0,0,3.6-.83,6.42,6.42,0,0,0,2.32-2.23,9.59,9.59,0,0,0,1.22-3.15,18,18,0,0,0,.36-3.6,18.45,18.45,0,0,0-.36-3.63,9.29,9.29,0,0,0-1.22-3.16,6.76,6.76,0,0,0-2.32-2.23,7,7,0,0,0-3.6-.86,6.5,6.5,0,0,0-5.86,3.09,9.27,9.27,0,0,0-1.22,3.16,18.52,18.52,0,0,0-.36,3.63A18.08,18.08,0,0,0,233.54,40.72Z"/><path class="cls-1" d="M276.76,20.7v5.14h-6.19V42.59a4.14,4.14,0,0,0,.71,2.86,4.14,4.14,0,0,0,2.86.71q0.71,0,1.37-.06a11.49,11.49,0,0,0,1.25-.18v6.55a20.15,20.15,0,0,1-2.38.24q-1.31.06-2.56,0.06a24.65,24.65,0,0,1-3.72-.27,8.76,8.76,0,0,1-3.09-1,5.51,5.51,0,0,1-2.11-2.2,7.85,7.85,0,0,1-.77-3.75V25.84H257V20.7h5.12V11.47h8.45V20.7h6.19Z"/><path class="cls-1" d="M288.67,45.09a8.66,8.66,0,0,0,9.88.57,5.31,5.31,0,0,0,2.26-2.71h7.44q-1.79,5.54-5.48,7.92a16.12,16.12,0,0,1-8.93,2.38,17.58,17.58,0,0,1-6.55-1.16,13.6,13.6,0,0,1-4.94-3.3,14.85,14.85,0,0,1-3.12-5.12,18.73,18.73,0,0,1-1.1-6.55,18,18,0,0,1,1.13-6.43,14.88,14.88,0,0,1,8.18-8.57,15.92,15.92,0,0,1,6.4-1.25,14.64,14.64,0,0,1,6.84,1.52,13.67,13.67,0,0,1,4.79,4.08,16.76,16.76,0,0,1,2.71,5.83,21.74,21.74,0,0,1,.6,6.84h-22.2Q286.76,43.24,288.67,45.09Zm9.55-16.19a5.94,5.94,0,0,0-4.61-1.67,7.36,7.36,0,0,0-3.36.68,6.43,6.43,0,0,0-2.14,1.7A6.22,6.22,0,0,0,287,31.76a9.63,9.63,0,0,0-.39,2h13.75A9.77,9.77,0,0,0,298.22,28.9Z"/><polygon class="cls-1" points="98.44 9.65 88.86 9.65 72.79 52.65 82.19 52.65 85.53 42.65 85.53 42.65 87.99 35.65 87.97 35.65 93.5 20.65 93.62 20.65 98.98 35.65 90.03 35.65 87.58 42.65 101.42 42.65 104.63 52.65 114.33 52.65 98.44 9.65"/><path class="cls-2" d="M37.21,7.53A28.36,28.36,0,0,0,22.73,13.9a23.8,23.8,0,0,0-7.65,17.22C15,36,15.36,42.19,14.63,43.94s-1.27,2.54-4.11,3.19a6.74,6.74,0,0,1-6.1-1.6c-1.36-1.26-3.07-5-3.79-8.63a32.38,32.38,0,0,1-.48-9.45A29.76,29.76,0,0,1,4,15.43,31.75,31.75,0,0,1,14.32,4.72a32.28,32.28,0,0,1,11-4.23,27.35,27.35,0,0,1,9-.22c8.81,1,13.79,7.31,13.84,7.88C47.85,8.35,43.12,6.69,37.21,7.53Z"/><path class="cls-3" d="M24.26,52.26a28.36,28.36,0,0,0,14.48-6.38,23.65,23.65,0,0,0,7.65-17.22c0.09-4.91-.16-8.77.2-11.57A5.13,5.13,0,0,1,51,12.65a6.09,6.09,0,0,1,6.1,1.6c2,2.26,3.08,4.77,3.79,8.63a29.3,29.3,0,0,1,.48,9.45,34.85,34.85,0,0,1-3.88,12A31.75,31.75,0,0,1,47.15,55.07a32.28,32.28,0,0,1-11,4.23,27.35,27.35,0,0,1-9,.22c-8.81-1-13.79-7.31-13.84-7.88C13.62,51.44,18.35,53.09,24.26,52.26Z"/></svg>