<?xml version="1.0" encoding="utf-8"?>
<!-- Generator: Adobe Illustrator 19.1.0, SVG Export Plug-In . SVG Version: 6.00 Build 0)  -->
<svg version="1.1" id="レイヤー_1" xmlns="http://www.w3.org/2000/svg" xmlns:xlink="http://www.w3.org/1999/xlink" x="0px"
	 y="0px" viewBox="-171.9 404.1 206.8 34.6" style="enable-background:new -171.9 404.1 206.8 34.6;" xml:space="preserve">
<style type="text/css">
	.st0{fill:#FFFFFF;}
	.st1{fill:none;}
	.st2{opacity:0.71;fill:#C8443B;enable-background:new    ;}
	.st3{opacity:0.9;fill:#A93831;enable-background:new    ;}
	.st4{opacity:0.9;fill:#C8443B;enable-background:new    ;}
	.st5{opacity:0.9;fill:#DE4C43;enable-background:new    ;}
</style>
<g>
	<path class="st0" d="M-123.9,405.5h2.5v11h12.9v-11h2.5v26.6h-2.5v-13h-12.9v13.1h-2.5V405.5z"/>
	<path class="st0" d="M-103.3,412.3h2.4v9c0,2.2,0.1,3.7,0.3,4.5c0.3,1.2,1,2.1,2,2.8s2.1,1,3.5,1c1.3,0,2.5-0.3,3.4-1
		s1.6-1.5,1.9-2.6c0.2-0.7,0.4-2.3,0.4-4.7v-9h2.5v9.5c0,2.7-0.3,4.7-0.9,6c-0.6,1.4-1.5,2.4-2.7,3.2c-1.2,0.8-2.7,1.1-4.6,1.1
		c-1.8,0-3.4-0.4-4.6-1.1c-1.2-0.8-2.1-1.8-2.7-3.2c-0.6-1.4-0.9-3.4-0.9-6.2L-103.3,412.3L-103.3,412.3z"/>
	<path class="st0" d="M-84.4,432.2v-26.7h2.4v10.1c1-1.3,2.1-2.2,3.4-2.9c1.3-0.6,2.6-1,4.1-1c2.7,0,4.9,1,6.8,3s2.8,4.4,2.8,7.2
		c0,2.8-0.9,5.2-2.8,7.2s-4.2,3-6.8,3c-1.5,0-2.9-0.3-4.2-1c-1.2-0.7-2.3-1.7-3.3-3v4.1H-84.4z M-74.7,429.8c1.3,0,2.6-0.3,3.7-1
		c1.1-0.7,2-1.6,2.7-2.9c0.7-1.2,1-2.5,1-3.9s-0.3-2.7-1-3.9s-1.6-2.2-2.7-2.9c-1.1-0.7-2.4-1-3.7-1c-1.3,0-2.6,0.3-3.8,1
		c-1.2,0.7-2.1,1.6-2.7,2.8c-0.6,1.2-1,2.5-1,4c0,2.2,0.7,4.1,2.1,5.6C-78.6,429-76.8,429.8-74.7,429.8z"/>
	<path class="st0" d="M-50.8,405.5h2.5v17.6c0,2.7-0.2,4.6-0.6,5.7c-0.4,1.1-1.1,1.9-2,2.5c-1,0.6-2.1,1-3.5,1c-1,0-2-0.2-3-0.6
		s-2.1-1.1-3.3-2.2l1.3-2.1c1.3,1,2.4,1.6,3.3,2c0.6,0.3,1.1,0.4,1.7,0.4c0.7,0,1.4-0.2,2-0.7s1-1,1.2-1.8c0.2-0.7,0.4-2.2,0.4-4.3
		L-50.8,405.5L-50.8,405.5z"/>
	<path class="st0" d="M-27.3,412.3v19.9h-2.4v-3.9c-1,1.3-2.1,2.2-3.4,2.9c-1.3,0.6-2.6,1-4.1,1c-2.7,0-4.9-1-6.8-3
		c-1.9-2-2.8-4.4-2.8-7.2c0-2.8,0.9-5.2,2.8-7.1c1.9-2,4.2-3,6.8-3c1.5,0,2.9,0.3,4.2,1c1.2,0.7,2.3,1.7,3.3,3v-3.6
		C-29.7,412.3-27.3,412.3-27.3,412.3z M-36.9,414.2c-1.3,0-2.6,0.3-3.7,1c-1.1,0.7-2,1.6-2.7,2.9c-0.7,1.2-1,2.5-1,3.9
		s0.3,2.7,1,3.9c0.7,1.2,1.6,2.2,2.7,2.9c1.1,0.7,2.4,1,3.7,1s2.6-0.3,3.8-1c1.2-0.7,2.1-1.6,2.7-2.8c0.6-1.2,1-2.5,1-4
		c0-2.2-0.7-4.1-2.1-5.6S-34.8,414.2-36.9,414.2z"/>
	<path class="st0" d="M-24.6,412.3h2.4v3.6c1-1.4,2.1-2.4,3.3-3c1.2-0.7,2.6-1,4.2-1c2.7,0,4.9,1,6.8,3c1.9,2,2.8,4.4,2.8,7.1
		c0,2.8-0.9,5.3-2.8,7.2c-1.9,2-4.1,3-6.8,3c-1.5,0-2.9-0.3-4.1-1c-1.3-0.6-2.4-1.6-3.4-2.9v10.4h-2.4V412.3z M-15,414.2
		c-2.1,0-3.8,0.8-5.3,2.3c-1.4,1.5-2.1,3.4-2.1,5.6c0,1.5,0.3,2.8,1,4c0.6,1.2,1.5,2.1,2.7,2.8c1.2,0.7,2.4,1,3.8,1
		c1.3,0,2.5-0.3,3.7-1c1.1-0.7,2.1-1.7,2.7-2.9c0.7-1.2,1-2.5,1-3.9s-0.3-2.7-1-3.9c-0.7-1.2-1.6-2.2-2.7-2.9
		C-12.4,414.6-13.6,414.2-15,414.2z"/>
	<path class="st0" d="M16,412.3v19.9h-2.4v-3.9c-1,1.3-2.1,2.2-3.4,2.9c-1.3,0.6-2.6,1-4.1,1c-2.7,0-4.9-1-6.8-3
		c-1.9-2-2.8-4.4-2.8-7.2c0-2.8,0.9-5.2,2.8-7.1c1.9-2,4.2-3,6.8-3c1.5,0,2.9,0.3,4.2,1c1.2,0.7,2.3,1.7,3.3,3v-3.6
		C13.6,412.3,16,412.3,16,412.3z M6.4,414.2c-1.3,0-2.6,0.3-3.7,1c-1.1,0.7-2,1.6-2.7,2.9c-0.7,1.2-1,2.5-1,3.9s0.3,2.7,1,3.9
		c0.7,1.2,1.6,2.2,2.7,2.9c1.1,0.7,2.4,1,3.7,1s2.6-0.3,3.8-1c1.2-0.7,2.1-1.6,2.7-2.8c0.6-1.2,1-2.5,1-4c0-2.2-0.7-4.1-2.1-5.6
		S8.4,414.2,6.4,414.2z"/>
	<path class="st0" d="M18.6,412.3H21v3.5c1-1.3,2-2.3,3.2-3c1.2-0.7,2.5-1,3.8-1c1.4,0,2.6,0.4,3.7,1.1c1.1,0.7,1.9,1.7,2.4,3
		c0.5,1.2,0.8,3.2,0.8,5.8v10.6h-2.4v-9.8c0-2.2-0.1-3.7-0.3-4.5c-0.3-1.3-0.8-2.2-1.6-2.9c-0.8-0.6-1.8-1-3.1-1
		c-1.5,0-2.8,0.5-3.9,1.5c-1.2,1-1.9,2.2-2.3,3.7c-0.2,1-0.3,2.7-0.3,5.3v7.7h-2.4L18.6,412.3L18.6,412.3z"/>
</g>
<g>
	<polygon class="st1" points="-159.8,423.4 -157.2,423.4 -158.3,422.9 	"/>
	<polygon class="st1" points="-142,415 -139.9,414.3 -145,413.6 -149.5,414.5 	"/>
	<polygon class="st1" points="-151.7,423.2 -141.9,421.1 -151.7,420.7 -154.8,421.8 	"/>
	<polygon class="st1" points="-168.9,415.5 -168.5,415.7 -167.8,415.6 	"/>
	<polygon class="st1" points="-153.6,418.8 -148.1,417 -158.6,416.2 -164.6,417.4 -162.3,418.4 	"/>
	<polygon class="st1" points="-162.4,411.2 -168.1,413.1 -158.7,413.8 -152.5,412.6 	"/>
	<polygon class="st1" points="-137.9,425.7 -145.9,425.7 -142.6,427.2 	"/>
	<path class="st1" d="M-136,423.2c0-0.3,0-0.5,0-0.8l-4.1,0.9L-136,423.2z"/>
	<path class="st1" d="M-146.6,419.1l10.5,0.4c-0.1-0.6-0.2-1.1-0.3-1.7l-5.2-0.4L-146.6,419.1z"/>
	<path class="st1" d="M-157.3,407l-5.2-0.8c-1.1,0.6-2.1,1.3-3.1,2.1l2.9,0.4L-157.3,407z"/>
	<path class="st1" d="M-142.7,429.8L-142.7,429.8l-0.7,0.2l5.5,0.2c0.4-0.8,0.7-1.5,1-2.3L-142.7,429.8L-142.7,429.8z"/>
	<path class="st1" d="M-157.1,409.5l11.9,1.6l4.7-0.9c-0.2-0.3-0.4-0.5-0.7-0.7l-10.7-1.7L-157.1,409.5z"/>
	<path class="st1" d="M-149.8,404.6c-1.3-0.3-2.7-0.5-4.1-0.5c-1.3,0-2.6,0.1-3.9,0.4l5.6,0.8L-149.8,404.6z"/>
	<path class="st1" d="M-145.1,406.4c-0.3-0.2-0.6-0.4-1-0.5l-0.8,0.3L-145.1,406.4z"/>
	<polygon class="st1" points="-151.8,425.8 -152.2,425.8 -167.7,429 -150.3,429.7 -146.1,428.3 	"/>
	<path class="st1" d="M-167.5,425.9l-1.8,0.6l-0.2-0.6h-2c0.1,0.4,0.2,0.9,0.3,1.3l6.5-1.4L-167.5,425.9z"/>
	<path class="st1" d="M-161.6,421.4l-2.7-1.2l-7.5-0.3c-0.1,0.7-0.1,1.4-0.1,2.1c0,0.5,0,1,0.1,1.4h3.9L-161.6,421.4z"/>
	<path class="st2" d="M-148,432.9h8.2c0.2,0,0.2-0.3,0.3-0.5l-5.4-0.3L-148,432.9z"/>
	<polygon class="st3" points="-150,432.2 -156.9,431.9 -161.2,433.2 -153.5,433.3 	"/>
	<path class="st3" d="M-142.6,427.2l0.9,0.4l-1,2.2l5.8-1.9c0.3-0.7,0.5-1.5,0.6-2.2h-1.6L-142.6,427.2z"/>
	<polygon class="st3" points="-142.7,429.8 -146.1,428.3 -150.3,429.7 -143.4,430 	"/>
	<polygon class="st2" points="-146.6,419.1 -141.7,417.5 -148.1,417 -153.6,418.8 	"/>
	<path class="st2" d="M-139.9,414.3l-2.1,0.7l4.7,0.3c-0.2-0.4-0.3-0.8-0.5-1.2l-0.1,0.4L-139.9,414.3z"/>
	<polygon class="st2" points="-154.8,421.8 -151.7,420.7 -157.7,420.5 	"/>
	<polygon class="st2" points="-158.3,422.9 -161.6,421.4 -167.8,423.4 -159.8,423.4 	"/>
	<polygon class="st2" points="-169.3,426.5 -167.5,425.9 -169.5,425.9 	"/>
	<polygon class="st3" points="-158.6,416.2 -148.1,417 -142,415 -149.5,414.5 	"/>
	<path class="st3" d="M-167.8,415.6l9.1-1.8l-9.4-0.7l-1.7,0.5c-0.2,0.4-0.4,0.8-0.6,1.2l1.4,0.6L-167.8,415.6z"/>
	<path class="st3" d="M-136.4,417.8c-0.2-0.6-0.3-1.3-0.6-1.9l-4.7,1.5L-136.4,417.8z"/>
	<path class="st2" d="M-148.1,417l6.4,0.5l4.7-1.5c-0.1-0.2-0.2-0.4-0.2-0.6l-4.8-0.4L-148.1,417z"/>
	<path class="st3" d="M-148.1,417l6.4,0.5l4.7-1.5c-0.1-0.2-0.2-0.4-0.2-0.6l-4.8-0.4L-148.1,417z"/>
	<path class="st4" d="M-171.2,417.2c-0.1,0.3-0.2,0.6-0.2,0.9l2.5,0.1L-171.2,417.2z"/>
	<polygon class="st4" points="-145,413.6 -152.5,412.6 -158.7,413.8 -149.5,414.5 	"/>
	<polygon class="st4" points="-167.8,415.6 -168.5,415.7 -164.6,417.4 -158.6,416.2 	"/>
	<path class="st4" d="M-139,412c-0.4-0.6-0.9-1.2-1.4-1.8l-4.7,0.9L-139,412z"/>
	<polygon class="st3" points="-149.5,414.5 -158.7,413.8 -167.8,415.6 -158.6,416.2 	"/>
	<polygon class="st4" points="-149.5,414.5 -158.7,413.8 -167.8,415.6 -158.6,416.2 	"/>
	<path class="st4" d="M-162.4,411.2l-5.3-0.7c-0.7,0.8-1.2,1.6-1.8,2.5l1.3,0.1L-162.4,411.2z"/>
	<polygon class="st4" points="-157.3,407 -162.6,408.8 -157.1,409.5 -151.9,407.8 	"/>
	<path class="st4" d="M-146.8,406.1l0.8-0.2c-1.2-0.6-2.4-1-3.7-1.3l-2.4,0.8L-146.8,406.1z"/>
	<path class="st3" d="M-169.4,413c-0.1,0.2-0.2,0.4-0.4,0.6l1.7-0.5L-169.4,413z"/>
	<path class="st4" d="M-169.4,413c-0.1,0.2-0.2,0.4-0.4,0.6l1.7-0.5L-169.4,413z"/>
	<polygon class="st2" points="-145.1,411.1 -157.1,409.5 -162.4,411.2 -152.5,412.6 	"/>
	<path class="st2" d="M-139.9,414.3l1.9-0.6c-0.2-0.5-0.5-0.9-0.8-1.3l-6.2,1.2L-139.9,414.3z"/>
	<path class="st2" d="M-165.5,408.4c-0.7,0.6-1.4,1.3-2,2l5-1.6L-165.5,408.4z"/>
	<path class="st2" d="M-137.8,414.6l0.1-0.4c-0.1-0.2-0.2-0.3-0.2-0.5l-1.9,0.6L-137.8,414.6z"/>
	<path class="st2" d="M-137.8,414.6l0.1-0.4c-0.1-0.2-0.2-0.3-0.2-0.5l-1.9,0.6L-137.8,414.6z"/>
	<path class="st4" d="M-152.5,412.6l7.5,1l6.3-1.2c-0.1-0.1-0.2-0.3-0.3-0.4l-6.1-0.8L-152.5,412.6z"/>
	<path class="st2" d="M-152.5,412.6l7.5,1l6.3-1.2c-0.1-0.1-0.2-0.3-0.3-0.4l-6.1-0.8L-152.5,412.6z"/>
	<path class="st4" d="M-157.1,409.5l-5.5-0.8l-5,1.6l-0.1,0.1l5.3,0.7L-157.1,409.5z"/>
	<path class="st2" d="M-157.1,409.5l-5.5-0.8l-5,1.6l-0.1,0.1l5.3,0.7L-157.1,409.5z"/>
	<path class="st3" d="M-152.1,405.3l-5.6-0.8c-1.7,0.4-3.2,1-4.7,1.8l5.1,0.7L-152.1,405.3z"/>
	<path class="st3" d="M-151.9,407.8l10.9,1.6c-1.2-1.2-2.5-2.2-4-3.1l-1.7-0.3L-151.9,407.8z"/>
	<polygon class="st4" points="-146.8,406.1 -152.1,405.3 -157.3,407 -151.9,407.8 	"/>
	<polygon class="st3" points="-146.8,406.1 -152.1,405.3 -157.3,407 -151.9,407.8 	"/>
	<path class="st2" d="M-150.3,429.7l-17.4-0.7l-2.5,0.5c0.3,0.6,0.6,1.3,1,1.8l12.3,0.5L-150.3,429.7z"/>
	<path class="st2" d="M-150,432.2l5.2,0.2l6.4-1.3c0.2-0.3,0.3-0.5,0.4-0.8l-5.4-0.3L-150,432.2z"/>
	<path class="st2" d="M-139.4,432.6c0.4-0.5,0.7-1,1-1.6l-6.4,1.3L-139.4,432.6z"/>
	<path class="st2" d="M-139.4,432.6c0.4-0.5,0.7-1,1-1.6l-6.4,1.3L-139.4,432.6z"/>
	<polygon class="st3" points="-143.4,430 -150.3,429.7 -156.9,431.9 -150,432.2 	"/>
	<polygon class="st2" points="-143.4,430 -150.3,429.7 -156.9,431.9 -150,432.2 	"/>
	<polygon class="st5" points="-146.1,428.3 -142.6,427.2 -145.9,425.7 -151.8,425.8 	"/>
	<path class="st5" d="M-142.7,429.8L-142.7,429.8L-142.7,429.8z"/>
	<path class="st5" d="M-168.9,415.5l-1.7-0.1c-0.1,0.3-0.2,0.5-0.3,0.8l2.4-0.5L-168.9,415.5z"/>
	<polygon class="st5" points="-164.3,420.2 -161.6,421.4 -158.7,420.5 	"/>
	<polygon class="st5" points="-158.3,422.9 -157.2,423.4 -152.5,423.3 -151.7,423.2 -154.8,421.8 	"/>
	<polygon class="st5" points="-164.6,417.4 -168.4,418.2 -162.3,418.4 	"/>
	<polygon class="st3" points="-142.7,429.8 -142.7,429.8 -141.7,427.6 -142.6,427.2 -146.1,428.3 	"/>
	<polygon class="st5" points="-142.7,429.8 -142.7,429.8 -141.7,427.6 -142.6,427.2 -146.1,428.3 	"/>
	<polygon class="st2" points="-154.8,421.8 -157.7,420.5 -158.7,420.5 -161.6,421.4 -158.3,422.9 	"/>
	<polygon class="st5" points="-154.8,421.8 -157.7,420.5 -158.7,420.5 -161.6,421.4 -158.3,422.9 	"/>
	<path class="st3" d="M-170.4,414.9c-0.1,0.2-0.1,0.3-0.2,0.5l1.7,0.1L-170.4,414.9z"/>
	<path class="st5" d="M-170.4,414.9c-0.1,0.2-0.1,0.3-0.2,0.5l1.7,0.1L-170.4,414.9z"/>
	<path class="st4" d="M-168.4,418.2l3.9-0.8l-3.9-1.7l-2.4,0.5c-0.1,0.3-0.2,0.6-0.3,1l2.3,1H-168.4z"/>
	<path class="st5" d="M-168.4,418.2l3.9-0.8l-3.9-1.7l-2.4,0.5c-0.1,0.3-0.2,0.6-0.3,1l2.3,1H-168.4z"/>
	<polygon class="st2" points="-157.2,423.4 -159.8,423.4 -167.5,425.9 -164.6,425.9 -155.7,424 	"/>
	<path class="st2" d="M-147.9,424.9l1.9,0.9l8-0.1l1.7-0.6c0.1-0.6,0.2-1.2,0.2-1.9h-4.1L-147.9,424.9z"/>
	<polygon class="st2" points="-151.9,425.7 -152.2,425.8 -151.8,425.8 	"/>
	<path class="st2" d="M-170,424.2l2.2-0.7h-3.9c0.1,0.8,0.2,1.6,0.4,2.4h2L-170,424.2z"/>
	<path class="st3" d="M-136.3,425.6c0-0.2,0.1-0.4,0.1-0.6l-1.7,0.6H-136.3z"/>
	<path class="st2" d="M-136.3,425.6c0-0.2,0.1-0.4,0.1-0.6l-1.7,0.6H-136.3z"/>
	<polygon class="st2" points="-167.8,423.4 -170,424.2 -169.5,425.9 -167.5,425.9 -159.8,423.4 	"/>
	<polygon class="st2" points="-167.8,423.4 -170,424.2 -169.5,425.9 -167.5,425.9 -159.8,423.4 	"/>
	<polygon class="st5" points="-157.2,423.4 -155.7,424 -152.5,423.3 	"/>
	<polygon class="st2" points="-157.2,423.4 -155.7,424 -152.5,423.3 	"/>
	<polygon class="st5" points="-151.8,425.8 -145.9,425.7 -147.9,424.9 -151.9,425.7 	"/>
	<polygon class="st2" points="-151.8,425.8 -145.9,425.7 -147.9,424.9 -151.9,425.7 	"/>
	<path class="st2" d="M-168.7,418.2l-2.7,0.5l-0.1-0.3c-0.1,0.5-0.2,1-0.2,1.5l7.5,0.3L-168.7,418.2z"/>
	<path class="st2" d="M-151.7,420.7l9.8,0.4l5.8-1.2c0-0.1,0-0.3-0.1-0.4l-10.5-0.4L-151.7,420.7z"/>
	<polygon class="st2" points="-162.3,418.4 -158.2,420.3 -153.6,418.8 	"/>
	<polygon class="st2" points="-158.2,420.3 -157.7,420.5 -151.7,420.7 -146.6,419.1 -153.6,418.8 	"/>
	<polygon class="st2" points="-158.2,420.3 -157.7,420.5 -151.7,420.7 -146.6,419.1 -153.6,418.8 	"/>
	<path class="st4" d="M-168.7,418.2l-0.2-0.1l-2.5-0.1c0,0.1-0.1,0.3-0.1,0.4l0.1,0.3L-168.7,418.2z"/>
	<path class="st2" d="M-168.7,418.2l-0.2-0.1l-2.5-0.1c0,0.1-0.1,0.3-0.1,0.4l0.1,0.3L-168.7,418.2z"/>
	<polygon class="st5" points="-158.2,420.3 -162.3,418.4 -168.4,418.2 -168.7,418.2 -164.3,420.2 -158.7,420.5 	"/>
	<polygon class="st2" points="-158.2,420.3 -162.3,418.4 -168.4,418.2 -168.7,418.2 -164.3,420.2 -158.7,420.5 	"/>
	<polygon class="st2" points="-158.7,420.5 -157.7,420.5 -158.2,420.3 	"/>
	<polygon class="st5" points="-158.7,420.5 -157.7,420.5 -158.2,420.3 	"/>
	<polygon class="st2" points="-158.7,420.5 -157.7,420.5 -158.2,420.3 	"/>
	<polygon class="st4" points="-168.9,418.2 -168.7,418.2 -168.4,418.2 	"/>
	<polygon class="st5" points="-168.9,418.2 -168.7,418.2 -168.4,418.2 	"/>
	<polygon class="st2" points="-168.9,418.2 -168.7,418.2 -168.4,418.2 	"/>
	<path class="st4" d="M-152.2,425.8l-12.4,0.1l-6.5,1.4c0.2,0.6,0.4,1.1,0.6,1.7l2.8,0.1L-152.2,425.8z"/>
	<path class="st4" d="M-151.7,423.2l0.4,0.2l11.2-0.1l4.1-0.9c0-0.1,0-0.2,0-0.3c0-0.2,0-0.4,0-0.7l-5.9-0.2L-151.7,423.2z"/>
	<path class="st2" d="M-170.5,428.9c0.1,0.2,0.2,0.4,0.3,0.6l2.5-0.5L-170.5,428.9z"/>
	<path class="st4" d="M-170.5,428.9c0.1,0.2,0.2,0.4,0.3,0.6l2.5-0.5L-170.5,428.9z"/>
	<polygon class="st5" points="-151.3,423.3 -151.7,423.2 -152.5,423.3 	"/>
	<polygon class="st4" points="-151.3,423.3 -151.7,423.2 -152.5,423.3 	"/>
	<polygon class="st2" points="-155.7,424 -164.6,425.9 -152.2,425.8 -151.9,425.7 	"/>
	<polygon class="st4" points="-155.7,424 -164.6,425.9 -152.2,425.8 -151.9,425.7 	"/>
	<polygon class="st2" points="-140.1,423.2 -151.3,423.3 -147.9,424.9 	"/>
	<polygon class="st4" points="-140.1,423.2 -151.3,423.3 -147.9,424.9 	"/>
	<polygon class="st5" points="-155.7,424 -151.9,425.7 -147.9,424.9 -151.3,423.3 -152.5,423.3 	"/>
	<polygon class="st2" points="-155.7,424 -151.9,425.7 -147.9,424.9 -151.3,423.3 -152.5,423.3 	"/>
	<polygon class="st4" points="-155.7,424 -151.9,425.7 -147.9,424.9 -151.3,423.3 -152.5,423.3 	"/>
	<path class="st2" d="M-136,421.4c0-0.5-0.1-1-0.1-1.5l-5.8,1.2L-136,421.4z"/>
	<path class="st4" d="M-136,421.4c0-0.5-0.1-1-0.1-1.5l-5.8,1.2L-136,421.4z"/>
</g>
</svg>
